<svg viewBox="0 0 194 100" version="1.1" xmlns="http://www.w3.org/2000/svg" desc="Created with imagetracer.js version 1.2.6" ><path fill="rgb(181,198,205)" d="M 88.6 0.8 L 89.4 1 L 89.9 0.8 L 90.1 1 L 100.1 1 L 103.1 1.8 L 105.6 1.8 L 108.9 2.5 L 111.6 2.8 L 113.9 3.8 L 114.9 3.8 L 118.6 5 Q 122.4 6.4 125 9.1 L 127.3 12.9 L 127.5 16.6 Q 126.8 17.8 127 19.9 L 127.6 20.5 L 128.9 20.5 L 131.4 21.3 L 132.6 21.3 L 135.4 22 L 136.9 22 L 139.6 22.8 L 144.4 23.3 L 147.1 24 L 150.9 24.3 L 152.6 24.8 L 155.6 24.8 L 155.9 25 L 169.1 25 L 169.4 24.8 L 173.1 24.5 L 175.9 23.8 L 179.1 23.5 L 184.6 22 L 185.9 22 L 187.9 21 Q 189.4 21.1 190.1 20.5 L 192.1 20.5 L 191.6 21.3 L 186.6 24 L 178.1 27.8 L 166.4 31.8 L 161.6 32.8 L 156.9 34.3 L 152.1 35.3 L 150.6 35.3 L 148.1 36 L 142.6 36.3 L 138.4 37 L 133.9 37 L 133.1 37.3 L 132.9 37 L 129.4 37 L 125.1 36.3 L 122.8 34.4 Q 122 33 122 30.9 L 123.3 26.6 L 124.8 23.6 L 125.3 21.1 L 124.6 20.5 L 122.6 19.8 L 118.1 19 L 114.6 17.8 L 111.1 17.3 L 105.6 15.5 L 103.1 15.3 L 99.9 14.3 L 98.1 14.3 L 95.9 13.5 L 92.9 13.5 L 89.4 12.8 L 83.9 12.5 L 83.6 12.3 L 75.4 12.3 L 75.1 12 L 73.1 12 Q 72.8 12.6 71.4 12.3 L 71.1 12 L 65.6 12 L 65.4 12.3 L 56.1 12.5 L 55.9 12.8 L 53.9 12.8 L 51.9 13.3 L 49.4 13.3 L 44.9 14.3 L 42.9 14.3 L 39.9 15 L 38.6 15 Q 36.5 15.9 33.6 16 L 32.9 16.5 L 30.1 16.8 L 27.4 17.8 L 26.1 17.8 L 22.9 18.5 L 21.4 19.3 L 19.4 19.5 L 17.9 20.3 L 13.6 21.3 L 10.9 22.5 L 9.9 22.5 L 6.6 24 L 4.6 24 L 4.4 24.3 L 4.3 23.9 L 5.4 22.5 L 8.1 21.3 L 9.6 21 L 15.6 18 L 20.1 16.5 L 23.9 14.8 L 26.9 14 L 28.6 13 L 31.6 12 L 32.9 12 L 33.4 11.5 L 34.9 11.3 L 38.6 9.8 L 40.4 9.5 L 41.1 9 L 42.9 8.8 L 44.4 8 L 52.1 6 L 53.4 6 L 55.6 5 L 57.4 5 L 60.4 4 L 62.6 4 L 65.9 3 L 70.6 2.5 L 72.4 2 L 76.6 1.8 L 80.9 1 L 88.4 1 L 88.6 0.8 Z M 84 1 L 84 2 L 80 2 L 78 2 L 73 2 L 70 3 L 68 3 L 65 4 L 61 4 L 58 5 L 57 5 L 54 6 L 53 6 L 45 8 L 41 10 L 38 10 L 34 12 L 31 13 L 27 14 L 24 15 L 19 18 L 16 19 L 16 20 L 17 20 L 21 18 L 26 18 L 31 16 Q 35 16 39 15 L 41 15 L 42 14 L 44 14 L 47 13 L 51 13 L 51 13 L 54 13 L 54 12 L 57 12 L 57 12 L 61 12 L 61 12 L 85 12 L 86 12 L 89 12 L 93 13 L 96 13 L 98 14 L 102 14 Q 104 15 106 15 L 109 16 L 110 16 L 112 17 L 115 18 L 118 19 L 121 19 L 124 20 L 126 21 Q 125 24 124 26 L 123 30 L 123 33 L 123 34 L 126 36 L 129 36 L 130 37 L 139 37 L 141 36 L 144 36 L 146 36 L 149 35 L 151 35 L 153 35 L 154 34 L 158 34 L 171 30 L 177 28 L 178 27 Q 183 25 187 23 L 186 23 L 184 23 L 182 23 L 180 24 L 176 24 L 173 25 L 168 25 L 168 26 L 157 26 L 156 25 L 153 25 L 149 25 L 146 24 L 144 24 L 140 23 L 134 22 L 131 22 L 126 20 L 127 16 L 127 13 L 125 10 L 122 7 L 119 6 L 113 4 L 112 3 L 105 2 L 102 2 L 100 2 L 98 2 L 98 1 L 84 1 Z " /><path fill="rgb(181,198,205)" d="M 37.9 32.8 L 44.1 32.8 L 45 33.4 L 45.3 33.9 L 45.3 73 L 43.9 73.8 L 38.1 73.8 L 36.8 72.9 L 36.8 34.1 L 37.3 33 L 37.9 32.8 Z M 39 34 L 38 34 L 38 34 L 38 72 L 38 73 L 44 73 L 44 73 L 45 72 L 45 35 L 44 34 L 42 34 L 39 34 Z " /><path fill="rgb(181,198,205)" d="M 15.9 44.5 L 18.6 44.5 L 22.9 45.3 Q 26 46.4 28 48.6 Q 30 51.2 31 54.9 L 31.3 58.1 L 31.5 58.4 L 31.5 60.9 L 30.4 62.5 L 18.6 62.5 Q 18.3 61.9 17.1 62.3 L 16.4 62.5 Q 16.1 61.9 14.9 62.3 Q 14.4 62.9 12.9 62.5 L 12.5 62.9 Q 12.9 65.6 14.9 66.8 L 17.4 68 L 21.4 68 L 23.6 67.5 L 28.6 65.5 L 29.3 66.1 L 29.5 70.1 Q 28.9 70.4 29.3 71.6 L 28.6 72.5 L 25.9 73.8 L 23.9 73.8 L 21.9 74.5 L 19.4 74.5 L 19.1 74.3 L 16.1 74.3 L 14.9 73.8 L 12.6 73.5 L 8.4 71 L 7 69.6 L 5 65.9 L 4.3 62.4 L 4 58.1 L 5.3 52.4 L 7 49.4 L 9.1 47.3 L 13.4 45 L 15.9 44.5 Z M 16 46 Q 12 46 10 48 Q 7 50 6 53 L 5 55 L 5 58 L 5 58 L 5 64 L 7 68 Q 7 68 7 68 L 9 70 Q 9 70 9 70 L 11 72 L 14 73 L 16 73 L 18 74 L 24 73 L 28 72 L 29 71 L 29 67 L 28 67 L 27 67 L 24 68 L 21 69 L 21 69 L 18 69 L 14 68 L 12 64 L 12 62 L 12 62 L 30 62 L 31 61 L 31 58 L 30 57 L 30 55 L 29 51 L 27 49 L 25 47 L 22 46 L 20 46 L 16 46 Z " /><path fill="rgb(181,198,205)" d="M 62.6 44.5 L 65.1 44.5 L 69.4 45.3 Q 71.9 46 73.5 47.6 L 75.8 50.4 L 76.3 52.1 L 76.8 52.6 L 77.8 56.9 L 78 61.1 L 77.1 62.3 L 76.4 62.5 Q 76 61.9 74.6 62.3 L 74.1 62.5 L 73.6 62.5 L 59.4 62.5 L 59.3 62.9 L 59 63.6 L 60.6 66.3 L 63.4 67.8 L 68.9 68 L 74.6 65.8 L 75.8 66.6 L 76 67.1 L 76 70.9 L 74.6 72.8 L 69.6 74.3 L 62.9 74.5 Q 61.8 73.7 59.9 73.8 L 56.9 72.5 L 54.8 70.9 Q 54.9 70.3 54.4 70.5 Q 49.9 66.7 50.5 57.9 L 51 56.1 L 51 54.6 L 51.8 52.4 L 53.5 49.1 L 54.4 48.3 L 56.6 46.5 L 58.6 45.5 L 62.6 44.5 Z M 62 46 L 57 47 L 55 49 L 52 53 L 51 57 L 51 62 L 52 65 L 54 69 L 58 72 L 61 73 L 64 74 L 64 74 L 69 74 L 74 72 L 75 71 L 75 67 L 74 67 L 71 68 L 68 69 L 64 69 L 61 68 Q 59 66 58 63 L 58 62 L 59 62 L 76 62 L 77 61 L 77 56 L 76 53 L 75 50 L 73 48 Q 69 45 62 46 Z " /><path fill="rgb(181,198,205)" d="M 94.1 44.5 L 99.6 44.8 L 101.6 45.3 L 102.8 46.4 L 103 47.4 L 102.8 47.6 L 102.8 50.4 L 102 51.8 Q 101.5 52.2 100.1 52 L 98.9 51.5 L 95.1 51.5 Q 92.9 52 91.8 53.6 L 90.3 56.6 L 90 60.6 L 91 64.1 L 93.1 66.8 L 95.9 67.8 L 98.6 67.8 Q 99.8 66.6 102.4 67 L 103.3 67.6 L 103.5 72.6 L 101.1 74 L 95.4 74.5 L 95.1 74.3 L 91.1 74 L 87.9 72.8 L 84.3 69.6 L 82 65.6 L 81.5 63.9 L 81.3 62.6 L 81.3 57.1 L 82.5 51.9 L 86.9 47 L 89.6 45.5 L 91.9 44.8 L 93.9 44.8 L 94.1 44.5 Z M 93 46 L 89 47 L 86 49 L 83 53 L 82 57 L 82 62 L 83 64 L 84 68 Q 86 71 89 72 L 91 73 L 95 74 L 95 74 L 101 73 L 103 72 Q 103 69 102 68 L 102 68 L 98 69 L 95 68 L 92 67 L 90 65 L 89 61 L 89 57 L 91 54 Q 92 51 96 51 L 98 51 L 100 51 L 101 51 L 102 50 L 102 48 L 102 48 L 102 47 L 101 46 L 99 46 L 93 46 Z " /><path fill="rgb(181,198,205)" d="M 122.9 44.5 L 124.9 44.5 L 128.9 45.3 Q 131 46.2 132.3 47.9 L 133.8 50.6 L 134.8 55.4 L 134.8 69.9 L 134.5 70.1 L 134.5 72.1 L 134.5 72.6 L 133.9 73.5 L 127.6 74 L 126.3 73.1 L 126 72.6 L 126 55.1 Q 125.5 53.1 124.1 52 Q 123 51.1 120.6 51.5 L 118.5 52.5 L 117 54.6 L 117 55.6 L 116.3 57.6 L 116.3 59.9 L 116 60.1 L 116 72.9 L 115.1 73.8 L 113.4 74 L 113.1 73.8 L 108.9 73.8 L 107.5 72.6 L 107.5 46.6 L 108.4 45.5 L 108.9 45.3 L 114.6 45.3 L 116.4 47.3 L 117.6 46.3 Q 119.2 46.2 119.9 45.3 L 122.9 44.5 Z M 122 46 L 120 46 Q 118 47 117 49 L 115 49 L 115 47 L 114 46 L 109 46 L 109 47 L 109 51 L 108 52 L 109 52 L 109 72 L 109 73 L 115 73 L 115 72 L 115 58 L 116 54 L 117 53 Q 118 51 121 51 Q 124 50 125 51 L 126 53 L 127 56 L 127 68 L 127 68 Q 127 70 127 70 Q 126 72 128 73 L 133 73 L 134 73 L 134 72 L 134 55 L 134 55 L 134 53 L 133 51 L 131 48 L 127 46 L 126 46 L 122 46 Z " /><path fill="rgb(181,198,205)" d="M 152.9 44.5 L 156.1 44.5 L 160.6 45.5 Q 164.7 47.1 167.3 50.1 L 169.8 56.1 L 170 61.6 L 168.8 66.4 L 167.5 68.6 L 164.9 71.3 L 162.9 72.8 Q 161.3 72.9 160.4 73.8 Q 158.9 73.6 158.1 74.3 L 152.6 74.5 L 151.9 74 L 150.4 74 L 148.6 73.5 L 144.4 71 L 143.3 69.9 L 141.3 67.4 L 141.3 66.6 L 140.3 64.9 L 140 62.1 L 139.8 61.9 L 139.8 57.1 Q 140.4 56.8 140 55.4 L 141.3 52.1 Q 142.3 49.9 144.1 48.5 Q 146.1 46.6 148.9 45.5 L 152.9 44.5 Z M 152 46 Q 148 46 146 48 L 142 52 L 141 56 L 140 58 L 141 62 L 141 64 L 143 69 Q 145 71 147 72 L 150 73 L 153 73 L 153 74 L 158 74 L 159 73 L 162 72 L 165 71 L 167 68 L 168 65 L 169 62 L 169 56 L 168 53 L 167 51 L 164 49 L 162 47 L 157 46 L 152 46 Z " /><path fill="rgb(181,198,205)" d="M 189.4 44.5 L 192.1 45 L 192.8 45.6 L 192.8 51.1 L 193 51.4 L 192.5 52.8 L 191.1 53 L 190.9 52.8 L 187.6 52.8 Q 186 53.1 185.3 54.4 L 184.5 55.9 L 184.3 57.9 L 183.8 58.9 L 183.8 67.6 L 183.5 67.9 L 183.5 70.4 L 183.8 70.6 L 183.8 72.6 L 183.1 73.5 L 182.6 73.8 L 176.4 73.8 L 175.3 72.4 L 175.3 68.4 L 175.5 68.1 L 175.5 62.9 L 175.3 62.6 L 175.3 57.1 L 175.5 56.9 L 175.5 49.6 L 175.3 49.4 L 175.3 46.9 L 176.1 45.3 L 181.9 45.3 L 182.5 45.5 L 183 46.4 L 183 48.3 Q 183.9 48.6 183.8 47.9 L 184.9 46.5 L 185.4 46.5 L 187.1 45 L 189.4 44.5 Z M 189 46 Q 189 46 188 46 L 186 47 L 184 49 L 183 50 Q 182 49 182 46 L 181 46 L 179 46 L 179 46 L 177 46 L 176 47 L 176 49 L 176 50 L 176 50 L 176 52 L 176 52 L 176 56 L 176 56 L 176 62 L 176 62 L 176 67 L 176 68 L 176 72 L 176 73 L 177 73 L 182 73 L 183 72 L 183 59 L 184 55 L 185 54 L 187 52 Q 189 52 189 52 L 192 52 L 192 51 L 192 47 L 192 46 Q 192 45 189 46 Z " /><path fill="rgb(181,198,205)" d="M 16.6 50.3 Q 19.3 49.9 20.9 50.8 L 23 52.6 L 24 55.1 L 24 56.4 L 23.8 57 L 12.4 57 L 12 56.6 L 11.8 55.1 Q 12.2 53 13.6 51.8 L 16.6 50.3 Z M 16 51 L 14 53 L 13 55 L 13 56 L 13 56 L 16 56 L 16 56 L 17 56 L 18 56 Q 20 56 23 56 L 23 56 L 23 55 L 22 53 L 20 51 L 16 51 Z " /><path fill="rgb(181,198,205)" d="M 63.1 50.3 L 66.9 50.5 L 69.3 52.6 Q 70.4 53.8 70.5 55.9 L 69.6 57 L 58.9 57 L 58 56.1 Q 58.4 52.7 60.6 51.3 L 63.1 50.3 Z M 63 51 L 61 52 L 59 54 L 59 56 L 59 56 L 63 56 L 64 56 L 69 56 L 69 56 L 69 55 L 68 53 L 66 51 L 63 51 Z " /><path fill="rgb(181,198,205)" d="M 153.6 50.5 L 157.1 50.8 Q 159.4 51.7 160.8 53.6 L 162 57.1 L 162 60.9 L 160.8 65.1 L 158.6 67.5 Q 156.9 68.9 153.4 68.5 Q 151 68 149.8 66.4 L 148.3 63.9 L 147.5 58.9 L 147.8 58.6 L 148 55.6 Q 148.8 53.2 150.6 51.8 L 153.6 50.5 Z M 154 52 L 151 53 Q 149 54 149 57 L 149 62 L 150 66 L 154 68 L 156 68 L 159 67 L 161 64 L 161 60 L 161 56 L 159 53 Q 158 51 154 52 Z " /><path fill="rgb(181,198,205)" d="M 142.9 78 Q 144.6 77.6 145 78.6 L 145.3 79.6 Q 144.7 79.9 145 81.1 L 145.3 81.6 L 145 82.6 L 145.6 83.8 L 147.6 83 L 149.9 83 L 152.8 85.1 Q 153.9 86.5 154 88.9 L 153.8 89.1 L 153.8 91.6 L 151.9 94.3 L 149.4 95.5 L 146.4 95.5 Q 146 94.8 144.9 95 L 144.6 95.3 L 142.4 95.3 L 142 94.9 L 142 79.1 L 142.3 78.3 L 142.9 78 Z M 143 79 L 143 80 L 143 94 Q 143 95 144 95 L 145 94 L 147 95 L 149 95 L 151 94 L 153 92 L 153 90 L 153 88 L 152 85 Q 151 84 150 84 Q 147 84 145 85 L 145 85 Q 145 83 144 83 L 145 82 L 144 79 L 143 79 Z " /><path fill="rgb(181,198,205)" d="M 190.6 78 Q 192.1 77.6 192.5 78.4 L 192.5 95.1 L 192.1 95.3 Q 191.8 95.8 190.6 95.5 L 189.8 94.9 L 189.8 79.4 L 190.6 78 Z M 191 79 L 190 80 L 191 80 L 190 81 L 190 94 L 191 95 Q 192 95 192 95 L 192 79 L 191 79 Z " /><path fill="rgb(181,198,205)" d="M 185.1 78.8 Q 186.7 78.6 187 79.6 Q 187 81.7 185.6 82.3 Q 184.4 82.2 184 81.4 L 183.8 80.1 L 184.4 79 L 185.1 78.8 Z M 185 80 Q 184 80 185 81 L 185 82 L 186 81 Q 187 81 186 80 Q 186 79 185 80 Z " /><path fill="rgb(181,198,205)" d="M 185.4 82.8 L 186.8 83.6 L 186.8 94.9 L 186.4 95.3 L 184.6 95.5 L 184 94.9 L 183.8 93.1 L 184 92.9 L 184 90.4 L 183.8 90.1 L 183.8 84.9 L 184 83.6 L 184.6 83 L 185.4 82.8 Z M 185 84 L 184 86 L 185 87 L 185 89 L 184 90 L 185 90 L 185 93 L 184 93 L 185 95 Q 186 95 186 95 L 186 94 L 186 93 L 186 85 L 186 84 Q 186 84 185 84 Z " /><path fill="rgb(181,198,205)" d="M 156.9 83 L 159.4 83.8 Q 160 82.8 161.9 83 L 162.8 83.6 Q 162.8 85.3 161.9 86 L 160.4 86.3 L 159.5 87.1 L 159 88.4 L 159 94.9 L 158.6 95.3 L 157.1 95.5 L 156 94.9 L 156 83.9 L 156.3 83.3 L 156.9 83 Z M 161 84 L 159 85 L 157 84 L 157 85 L 157 91 L 157 91 L 157 92 Q 157 94 157 94 Q 156 95 157 95 L 158 95 L 158 88 L 159 86 L 160 86 L 162 85 L 162 84 Q 162 84 161 84 Z " /><path fill="rgb(181,198,205)" d="M 165.9 83 Q 170.2 82.5 171.5 85.1 L 172.3 86.6 L 172.3 93.9 L 172.5 94.9 Q 171.9 95.7 170.4 95.5 Q 170 94.8 168.6 95 Q 167.4 95.8 165.1 95.5 L 162.8 93.6 L 162.5 92.1 L 163 90.1 L 164.1 88.8 L 166.4 87.5 L 168.8 87.5 Q 169 86.3 168.1 86 Q 167.3 85.4 165.6 85.8 Q 165.3 86.3 164.1 86 Q 163.4 85.7 163.8 84.4 L 165.9 83 Z M 166 84 L 165 85 Q 164 85 165 85 L 165 85 L 168 85 L 170 87 L 169 88 Q 168 88 167 88 L 165 89 Q 163 90 163 92 L 164 93 L 165 95 Q 168 95 169 94 L 170 94 L 171 95 L 172 95 L 171 93 L 172 93 Q 172 88 171 85 L 169 84 L 166 84 Z " /><path fill="rgb(181,198,205)" d="M 177.9 83 Q 181.1 82.5 182.3 84.1 L 182 85.8 Q 179.4 85.3 178.3 86.4 Q 178.1 87.3 178.6 87.5 L 180.6 88.3 L 182 89.3 L 183 90.9 L 183 92.9 L 181.9 94.3 Q 180.4 96 176.6 95.5 L 175.6 95.3 L 174.8 94.4 L 174.5 93.3 Q 175.5 92.5 177.6 92.8 L 178.4 93 L 179.8 92.1 Q 179.9 90.9 179.1 90.8 Q 176.6 90.2 175.3 88.4 Q 174.6 87.4 175 85.4 L 177.9 83 Z M 179 84 L 176 85 L 176 86 Q 175 87 176 88 Q 177 90 179 90 Q 181 90 181 92 Q 180 94 178 94 L 176 94 L 176 94 L 177 95 Q 179 95 181 95 L 182 92 L 182 90 Q 181 89 178 88 L 177 87 L 178 86 L 179 85 L 181 85 L 182 84 L 181 84 L 179 84 Z " /><path fill="rgb(181,198,205)" d="M 147.4 85 L 149.4 85.3 L 151.3 87.1 L 151.5 90.4 Q 151.2 92.4 149.6 93.3 Q 148.7 93.9 146.6 93.5 L 144.8 91.9 L 144.3 90.1 L 144.3 88.1 L 145.5 85.5 L 147.4 85 Z M 147 86 L 145 88 L 145 91 L 146 92 L 147 93 L 148 93 L 149 93 L 151 91 L 151 88 L 151 87 Q 150 86 147 86 Z " /><path fill="rgb(181,198,205)" d="M 168.1 89 L 169.8 89.6 Q 170.3 92.5 168.6 93.3 L 166.1 93.5 L 165.5 93.3 Q 164.9 92.7 165 91.1 L 165.6 90 L 168.1 89 Z M 168 90 L 166 91 Q 166 93 166 93 L 168 93 L 169 92 L 169 91 Q 169 89 168 90 Z " /><path fill="rgb(227,126,33)" d="M 83.9 1.3 L 97.6 1.3 L 97.9 1.5 L 100.4 1.5 L 102.4 2 L 104.9 2 L 112.1 3.3 L 113.4 4 L 118.6 5.5 L 122.1 7.3 L 125.3 10.1 L 126.8 12.6 L 127.3 15.6 L 126.3 20.4 L 131.1 21.8 L 134.1 22 L 139.9 23.3 L 143.6 23.5 L 145.6 24.3 L 149.4 24.5 L 153.1 25.3 L 156.4 25.3 L 156.6 25.5 L 167.6 25.5 L 167.9 25.3 L 172.9 25 L 175.6 24.3 L 180.1 23.8 L 182.4 23 L 184.1 23 L 186.1 22.5 L 186.5 23.3 Q 183 25.5 178.4 26.8 L 176.9 27.8 L 170.6 30 L 158.4 33.5 L 153.6 34.3 L 152.6 34.8 L 150.6 34.8 L 149.1 35.3 L 145.9 35.5 L 144.1 36 L 141.4 36 L 138.9 36.5 L 129.6 36.5 L 129.4 36.3 L 125.6 36 L 123.3 34.4 L 122.8 32.6 L 122.8 30.4 L 123.8 26.4 Q 125.5 23.9 126 20.5 L 124.4 20.3 L 120.6 18.8 L 117.9 18.5 L 115.1 17.5 L 111.9 17 L 110.1 16.3 L 109.1 16.3 L 106.4 15.3 Q 103.7 15.2 101.9 14.3 L 98.4 14 L 95.9 13 L 93.1 13 L 88.9 12.3 L 85.6 12.3 L 85.4 12 L 60.9 11.8 L 60.6 12 L 57.1 12 L 56.9 12.3 L 54.1 12.3 L 53.9 12.5 L 51.4 12.5 L 51.1 12.8 L 47.4 13 L 43.6 14 L 42.1 14 L 40.6 14.5 L 38.9 14.5 Q 35.2 15.7 30.6 16 L 26.1 17.5 L 21.4 18.3 L 17.4 19.5 L 16.1 19.5 L 16.1 19.3 L 18.6 17.5 L 24.4 15 L 27.4 14.3 L 31.4 12.5 L 34.4 12 L 38.4 10.3 L 40.9 9.8 L 44.9 8.3 L 52.6 6.3 L 53.9 6.3 L 56.9 5.3 L 58.1 5.3 L 61.1 4.3 L 64.6 4 L 67.6 3 L 70.1 3 L 73.1 2.3 L 77.9 2 L 80.4 1.5 L 83.6 1.5 L 83.9 1.3 Z " /><path fill="rgb(240,243,240)" d="M 79.3 0 L 96.6 0 L 97.4 0.5 L 100.1 0.5 Q 101.5 -0.4 104 0 L 104.6 1 Q 107.3 0.7 108.6 1.8 L 111.4 1.8 L 115.9 3.8 L 119.4 4 L 121.1 5.5 L 122.9 6 L 127 10.1 L 128 12.8 L 129.3 13.4 L 128.5 14.6 L 128.5 16.4 L 127.8 18.1 L 127.8 19.4 L 128.1 19.8 L 130.4 19.8 L 132.9 20.3 L 133.4 20 L 134.4 20.8 L 137.1 21.3 L 137.6 21.3 L 138.6 21.8 L 141.1 21.8 L 141.4 22 L 144.9 22.3 L 145.6 22 L 146.9 23 Q 150.2 22.5 151.6 23.8 L 156.4 23.8 L 156.6 24 L 169.9 24 L 170.1 23.8 L 172.6 23.8 L 174.1 23 L 177.9 22.8 L 179.4 22 L 182.9 21.8 Q 183.4 20.9 184.9 21 L 185.9 21.3 Q 186.3 20.5 187.6 20.8 L 188.6 20 L 192.6 19.8 Q 192.9 18.8 194 19 L 194 20.1 L 192.9 21.5 L 186.3 24.9 Q 186.4 25.8 185.9 26 L 184.4 25.8 L 182.6 26.5 L 181.9 27.3 L 179.6 27.5 L 178.4 28.5 L 177.6 28.5 L 174.4 30.3 L 172.6 30.5 L 171.6 31.3 L 169.6 31.5 L 168.4 32.3 L 163.4 33.5 L 162.4 33.5 L 160.1 34.5 L 157.6 34.5 L 155.9 35.5 L 154.4 35.5 L 152.4 36.3 L 150.9 36.3 L 149.4 37 L 142.6 37.3 L 142.4 37.5 L 139.6 37.5 L 137.9 38 L 132.4 38.3 Q 132 37.6 130.6 38 L 129.6 37.5 L 124.1 37.3 L 122 35.4 Q 121.4 34.5 121.8 32.6 L 121 31.6 L 121 30.6 L 121.8 29.6 L 121.8 28.1 L 123 25.1 L 123 23.6 L 124 21.6 L 123.8 21 L 122.6 20.5 Q 120.5 20.7 119.4 20 L 116.9 20 L 114.6 18.5 L 111.4 18.3 L 109.6 17.5 L 107.1 17.3 L 105.9 16.5 L 103.9 16.3 L 102.6 15.5 L 100.6 15.5 L 97.4 14.5 L 90.6 14.3 L 89.6 13.5 L 82.4 13.3 L 80.9 12.8 L 65.1 12.8 Q 64.8 13.4 63.4 13 L 62.6 12.8 L 62.4 13 L 59.9 13 L 57.4 13.5 L 54.4 13.5 L 52.6 14.3 L 46.6 14.5 L 45.1 15.3 L 39.6 15.5 L 38.6 16.3 L 35.6 16.5 L 34.4 17.3 L 30.4 17.5 Q 29 19 25.6 18.5 L 24.6 19.3 L 22.4 19.5 L 21.1 20.3 L 17.9 20.5 L 16.6 21.5 L 12.6 22.5 L 11.6 23.3 L 8.6 23.5 Q 8 24.9 5.6 24.5 L 4.4 25.5 L 1.3 25.5 L 0.9 26.3 L 0 26.3 L 0 25 L 0.8 24.6 L 1.4 23 L 3.6 23 L 4.6 22 L 5.9 21.8 L 6.6 21 Q 8.2 20.9 8.9 20 L 10.6 19.8 L 16.6 16.3 L 18.6 16 L 22.1 14.3 L 22.6 14.3 L 25.9 13.5 L 29.4 11.8 L 30.6 11.8 L 33.4 10.8 L 34.4 10.8 L 37.6 9 L 39.6 8.8 L 42.4 7.8 L 43.6 7.8 L 44.6 7 L 46.6 6.8 L 49.4 5.8 L 51.4 5.8 L 55.6 4.3 L 57.9 4 L 59.4 3.3 L 62.6 3.3 Q 63.5 2.5 65.4 2.8 L 67.6 1.8 L 70.6 1.8 L 72.1 1 L 78.6 0.8 L 79.3 0.5 L 79.3 0 Z M 89 1 L 88 1 L 81 1 L 77 2 L 72 2 L 71 3 L 66 3 L 63 4 L 60 4 L 57 5 L 56 5 L 53 6 L 52 6 L 44 8 L 43 9 L 41 9 L 40 10 L 39 10 L 35 11 L 33 12 L 33 12 L 32 12 L 29 13 L 27 14 L 24 15 L 20 17 L 16 18 L 10 21 L 8 21 L 5 23 L 4 24 L 4 24 L 5 24 L 7 24 L 10 23 L 11 23 L 14 21 L 18 20 L 19 20 L 21 19 L 23 19 L 26 18 L 27 18 L 30 17 L 33 17 L 34 16 Q 37 16 39 15 L 40 15 L 43 14 L 45 14 L 49 13 L 52 13 L 54 13 L 56 13 L 56 13 L 65 12 L 66 12 L 71 12 L 71 12 Q 73 13 73 12 L 75 12 L 75 12 L 84 12 L 84 13 L 89 13 L 93 14 L 96 14 L 98 14 L 100 14 L 103 15 L 106 16 L 111 17 L 115 18 L 118 19 L 123 20 L 125 21 L 125 21 L 125 24 L 123 27 L 122 31 Q 122 33 123 34 L 125 36 L 129 37 L 133 37 L 133 37 L 134 37 L 138 37 L 143 36 L 148 36 L 151 35 L 152 35 L 157 34 L 162 33 L 166 32 L 178 28 L 187 24 L 192 21 L 192 21 L 190 21 Q 189 21 188 21 L 186 22 L 185 22 L 179 24 L 176 24 L 173 25 L 169 25 L 169 25 L 156 25 L 156 25 L 153 25 L 151 24 L 147 24 L 144 23 L 140 23 L 137 22 L 135 22 L 133 21 L 131 21 L 129 21 L 128 21 L 127 20 Q 127 18 128 17 L 127 13 L 125 9 Q 122 6 119 5 L 115 4 L 114 4 L 112 3 L 109 3 L 106 2 L 103 2 L 100 1 L 90 1 L 90 1 L 89 1 L 89 1 Z " /><path fill="rgb(240,243,240)" d="M 37.6 32 Q 39.7 31.6 40.6 32.3 L 40.9 32 L 44.4 32 L 45.3 32.6 Q 46 33.6 45.8 35.6 L 45.5 36.4 L 45.8 36.6 L 45.8 66.9 L 45.8 67.4 L 45.5 71.4 L 46.3 72.9 L 43.9 74.3 L 37.9 74.3 L 36.3 73.1 L 36 72.1 L 36.3 71.9 L 36.5 68.1 L 36.3 67.9 L 36.3 35.4 L 36 34.6 L 36.8 32.9 L 37.6 32 Z M 38 33 L 37 33 L 37 34 L 37 73 L 38 74 L 44 74 L 45 73 L 45 34 L 45 33 L 44 33 L 38 33 Z " /><path fill="rgb(240,243,240)" d="M 123.4 43.8 L 123.9 44 L 126.6 44 Q 127.3 45 129.1 44.8 Q 131.2 45.7 132.5 47.4 L 134.5 50.9 L 134.5 52.6 L 135.3 54.6 L 135.3 72.9 L 132.9 74.5 L 127.1 74.5 L 126 73.9 L 125.5 71.4 L 125.8 70.9 Q 125.1 70.4 125.5 68.9 L 125.8 68.6 L 125.8 64.4 L 125.5 64.1 L 125.5 55.1 L 123.9 52.5 L 122.4 52 L 121.4 52.3 L 120.6 52 L 118.8 53.1 L 118.3 54.3 Q 117.6 54 117.8 54.6 L 117.3 57.1 L 116.5 58.6 L 116.5 73.1 L 115.6 74.3 L 115.1 74.5 L 112.1 74.5 Q 111.8 73.9 110.6 74.3 L 109.6 74.5 Q 107.9 74.2 107 73.1 L 106.8 72.6 L 106.8 68.1 L 107 67.9 L 107 52.6 Q 106.4 52.3 106.8 51.1 L 107 50.9 L 107 48.1 L 106.8 46.9 L 108.4 44.8 L 115.1 44.8 L 116 45.6 L 116.3 46.8 L 117.6 45.8 L 118.9 45.5 L 119.6 44.8 L 121.6 44.5 L 123.4 43.8 Z M 123 45 L 120 45 Q 119 46 118 46 L 116 47 L 115 45 L 109 45 L 108 46 L 108 47 L 108 73 L 109 74 L 113 74 L 113 74 L 115 74 L 116 73 L 116 60 L 116 60 L 116 58 L 117 56 L 117 55 L 119 53 L 121 52 Q 123 51 124 52 Q 126 53 126 55 L 126 73 L 126 73 L 128 74 L 134 74 L 135 73 L 135 72 L 135 70 L 135 70 L 135 55 L 134 51 L 132 48 Q 131 46 129 45 L 125 45 L 123 45 Z " /><path fill="rgb(240,243,240)" d="M 15.9 44 L 19.1 44 L 21.9 44.8 L 23.1 44.8 L 27.5 47.4 L 27.9 48 Q 28.4 47.8 28.3 48.4 L 29.5 49.9 L 31.5 54.6 L 31.5 57.1 Q 32.3 58.4 32 60.6 L 30.9 63.3 L 28.6 63 Q 28.3 63.6 26.9 63.3 L 25.4 62.8 L 25.1 63 L 20.4 63 L 19.1 63.3 L 17.4 62.8 L 16.1 63 L 15.1 62.8 L 14.4 63.3 L 13.4 63 L 13 63.6 L 15.1 66.3 L 16.5 66.9 Q 16.3 67.4 16.9 67.3 L 17.1 67.5 L 22.6 67.5 L 28.6 64.8 L 29.5 65.4 L 29.8 66.6 L 29.8 71.4 L 29.5 72.4 L 28.6 73.3 L 26.4 74.3 L 24.1 74.3 L 22.9 75 L 19.9 75 L 19.6 74.8 L 17.1 74.8 L 16.4 75 Q 15.2 74 12.6 74.3 L 9.6 72.3 L 8.1 71.8 L 6.8 70.4 L 5.5 67.4 L 4.8 66.6 Q 4.7 64.2 3.8 62.6 L 3.8 59.9 L 3.5 59.4 L 3.8 59.1 L 3.8 56.6 L 4.8 53.4 L 4.8 52.4 L 6.8 48.9 L 8.9 46.8 L 13.6 44.3 L 15.6 44.3 L 15.9 44 Z M 16 45 L 13 45 L 9 47 L 7 49 L 5 52 L 4 58 L 4 62 L 5 66 L 7 70 L 8 71 L 13 74 L 15 74 L 16 74 L 19 74 L 19 75 L 22 75 L 24 74 L 26 74 L 29 73 L 29 72 Q 29 70 30 70 L 29 66 L 29 66 L 24 68 L 21 68 L 17 68 L 15 67 Q 13 66 13 63 L 13 63 Q 14 63 15 62 Q 16 62 16 63 L 17 62 Q 18 62 19 63 L 30 63 L 32 61 L 32 58 L 31 58 L 31 55 Q 30 51 28 49 Q 26 46 23 45 L 19 45 L 16 45 Z " /><path fill="rgb(240,243,240)" d="M 62.1 44 L 65.9 44 L 70.4 45 L 73.1 46.5 L 75.3 48.6 L 77.5 53.1 L 77.5 54.4 L 78.5 57.6 L 78.5 61.6 L 78.3 62.3 L 77.1 63 L 76.4 63 Q 76.1 62.4 74.9 62.8 L 74.6 63 L 65.6 63 Q 65.3 63.6 63.9 63.3 Q 63.6 62.7 62.4 63 Q 62.1 63.6 60.9 63.3 L 59.9 63 L 59.5 63.6 L 61.1 66 L 63.6 67.5 Q 65.5 67.1 66.4 67.8 L 66.6 67.5 L 69.1 67.5 L 74.6 65 L 76.3 66 L 76.5 66.6 L 76.5 71.6 L 74.9 73.3 L 71.4 74.5 L 68.9 74.5 L 66.6 75 L 62.9 75 L 58.4 73.8 L 54.8 71.6 L 54.1 70.8 L 52.8 69.6 L 50.8 65.9 L 50.8 64.6 L 50 62.4 L 49.8 59.1 L 51 52.9 L 53.6 48 L 55 47.4 Q 54.8 46.8 55.4 47 L 56.9 45.8 L 57.6 45.8 L 59.1 44.8 L 62.1 44 Z M 63 45 L 59 46 L 57 47 L 54 48 L 54 49 L 52 52 L 51 55 L 51 56 L 51 58 Q 50 67 54 71 Q 55 70 55 71 L 57 73 L 60 74 Q 62 74 63 75 L 70 74 L 75 73 L 76 71 L 76 67 L 76 67 L 75 66 L 69 68 L 63 68 L 61 66 L 59 64 L 59 63 L 59 63 L 74 63 L 74 63 L 75 62 Q 76 62 76 63 L 77 62 L 78 61 L 78 57 L 77 53 L 76 52 L 76 50 L 74 48 Q 72 46 69 45 L 65 45 L 63 45 Z " /><path fill="rgb(240,243,240)" d="M 92.6 44 L 99.4 44 Q 100 45 101.9 44.8 L 103.3 46.1 L 103.5 48.1 L 103.3 48.4 L 103.3 50.9 L 102.1 52.3 L 99.9 52.5 L 97.1 52 L 96.9 52.3 L 93.9 52.5 L 91.5 54.6 L 90.5 57.6 L 90.5 61.4 Q 91.4 64.9 93.9 66.8 L 95.1 66.8 Q 95.8 67.7 97.6 67.5 L 99.1 66.8 Q 100.8 66.9 101.6 66.3 L 104.3 67.4 L 103.5 69.4 L 104.3 70.9 L 104.3 72.9 L 101.6 74.5 L 98.9 74.5 Q 97.8 75.3 95.6 75 L 93.9 74.5 Q 91.5 74.9 90.1 74.3 Q 89.2 73.4 87.6 73.3 L 85 71.3 L 84.4 70.3 Q 83.8 70.4 84 69.9 L 82.8 68.4 L 80.8 63.4 L 80.8 56.4 L 82.3 51.1 L 85.4 47.8 Q 85.9 47.9 85.8 47.4 L 87.4 46 Q 89.1 45.9 89.9 44.8 L 92.6 44 Z M 94 45 L 94 45 L 92 45 L 90 46 L 87 47 L 83 52 L 81 57 L 81 63 L 82 64 L 82 66 L 84 70 L 88 73 L 91 74 L 95 74 L 95 75 L 101 74 L 104 73 L 103 68 L 102 67 Q 100 67 99 68 L 96 68 L 93 67 L 91 64 L 90 61 L 90 57 L 92 54 Q 93 52 95 52 L 99 52 L 100 52 Q 101 52 102 52 L 103 50 L 103 48 L 103 47 L 103 46 L 102 45 L 100 45 L 94 45 Z " /><path fill="rgb(240,243,240)" d="M 152.4 44 L 156.9 44 L 158.9 44.8 L 160.4 44.8 L 164.6 47 L 165.8 48.1 Q 165.6 48.7 166.1 48.5 L 167.5 49.6 L 168.3 50.6 L 168.8 52.9 L 169.5 53.6 L 169.5 54.4 L 170.3 55.9 L 170.5 57.1 L 170.5 62.6 L 169.5 64.9 L 169.5 66.1 L 168.3 68.6 L 165.9 71.3 L 164.5 71.8 L 163.9 72.8 L 159.9 74.5 L 156.9 74.5 L 154.9 75.3 L 152.6 75.3 L 151.6 74.5 L 148.6 74.3 Q 145.3 72.6 142.8 70.1 L 140.8 67.6 L 140.8 66.6 L 139.8 65.1 L 139.3 60.6 Q 139.9 60.3 139.5 58.9 L 139.3 58.1 L 139.5 57.9 L 139.8 54.1 Q 140.7 53.4 140.8 51.9 L 143.4 48.3 L 145 47.5 Q 144.7 46.8 145.4 47 L 146.4 46 L 147.6 45.8 L 149.1 44.8 Q 151.3 45 152.4 44 Z M 153 45 L 149 46 Q 146 47 144 49 Q 142 50 141 52 L 140 55 Q 140 57 140 57 L 140 62 L 140 62 L 140 65 L 141 67 L 141 67 L 143 70 L 144 71 L 149 74 L 150 74 L 152 74 L 153 75 L 158 74 Q 159 74 160 74 Q 161 73 163 73 L 165 71 L 168 69 L 169 66 L 170 62 L 170 56 L 167 50 Q 165 47 161 46 L 156 45 L 153 45 Z " /><path fill="rgb(240,243,240)" d="M 188.9 44 L 190.6 44 L 193.3 45 L 193.5 46.6 L 193.3 46.9 L 193 49.9 Q 193.7 50.5 193.5 52.1 L 192.9 53.3 L 190.6 53.5 Q 190.3 52.9 189.1 53.3 L 188.9 53.5 L 186.9 53.5 L 185.5 54.9 L 184.8 56.4 L 184 60.9 L 184.3 62.1 L 184 62.4 L 184 66.9 L 184.3 67.6 L 184 67.9 L 184 69.9 L 184.3 70.1 L 184.3 72.9 L 182.9 74.3 L 176.6 74.5 L 175.8 73.9 Q 175.9 73.3 175.4 73.5 L 174.8 72.6 L 174.8 52.4 L 175 51.1 L 174.8 50.9 L 174.8 46.1 L 175.9 44.8 L 182.1 44.8 L 183.3 45.6 L 183.5 46.9 L 183.3 47.6 L 184 47.1 L 184.9 46 L 185.4 46 L 186.9 44.5 L 188.9 44 Z M 189 45 L 187 45 L 185 47 L 185 47 L 184 48 Q 184 49 183 48 L 183 46 L 183 46 L 182 45 L 176 45 L 175 47 L 175 49 L 176 50 L 176 57 L 175 57 L 175 63 L 176 63 L 176 68 L 175 68 L 175 72 L 176 74 L 183 74 L 183 74 L 184 73 L 184 71 L 184 70 L 184 68 L 184 68 L 184 59 L 184 58 L 185 56 L 185 54 Q 186 53 188 53 L 191 53 L 191 53 L 193 53 L 193 51 L 193 51 L 193 46 L 192 45 L 189 45 Z " /><path fill="rgb(240,243,240)" d="M 16.4 51.3 L 19.6 51.3 L 22.3 52.9 L 23 54.6 L 23 55.6 L 22.6 56 Q 19.9 55.6 18.1 56.3 L 17.4 56 L 16.1 56.3 L 15.9 56 L 12.9 56 L 12.5 55.6 L 12.5 54.9 L 13.9 52.5 L 16.4 51.3 Z M 17 52 L 16 52 L 14 54 L 13 55 L 13 56 Q 14 55 16 56 L 17 56 Q 18 55 18 56 L 20 55 L 23 56 L 23 55 L 22 53 L 20 52 L 17 52 Z " /><path fill="rgb(240,243,240)" d="M 62.6 51.3 L 65.9 51.3 L 68.3 52.9 L 69.3 54.6 L 69.3 55.6 L 68.9 56 L 63.9 56.3 L 63.4 56.3 L 59.4 56 L 59 55.6 L 59.3 54.4 L 61.1 52 L 62.6 51.3 Z M 62 52 L 61 53 L 60 55 L 60 55 Q 60 56 60 56 L 68 56 L 68 56 Q 69 56 69 55 L 68 53 Q 66 51 62 52 Z " /><path fill="rgb(240,243,240)" d="M 153.6 51.5 Q 157.7 51.2 159.3 53.4 L 161 56.4 L 161.3 60.1 L 160.5 63.9 L 158.8 66.5 L 155.9 67.8 L 153.6 67.8 L 150.3 65.6 L 148.5 61.6 L 148.5 56.9 Q 149.4 54.1 151.4 52.5 L 153.6 51.5 Z M 153 52 L 152 53 Q 150 54 149 57 L 149 58 L 149 60 L 149 60 L 149 61 Q 150 62 150 63 L 151 66 L 154 67 L 156 67 L 158 67 L 160 64 L 160 63 L 161 61 L 161 56 L 159 54 L 159 53 L 158 53 L 156 52 L 155 53 L 153 52 Z " /><path fill="rgb(240,243,240)" d="M 150.3 55.3 L 151.3 55.6 L 151.3 57.9 L 150.9 58.3 Q 150 58.5 150.3 57.9 L 149.8 56.6 L 150.3 55.3 Z " /><path fill="rgb(240,243,240)" d="M 152.6 58 Q 153.2 57.8 153 58.4 L 153.5 60.9 L 152.6 62.3 L 151.8 61.6 L 152.3 60.6 Q 151.4 60.3 151.8 58.9 L 152 58.3 L 152.6 58 Z " /><path fill="rgb(240,243,240)" d="M 143.1 77.5 Q 144.9 77.3 145.5 78.4 L 145.5 82.6 L 145.9 83 L 147.9 82.5 L 149.4 82.5 L 150.6 82.8 L 153 84.4 L 154.5 87.6 L 154.5 90.9 L 153.3 93.6 L 152.4 94.5 L 151.9 94.5 L 150.1 95.8 L 145.9 95.8 L 144.6 95.5 Q 144.2 96.2 142.6 95.8 L 141.8 95.1 L 141.5 94.6 L 141.5 86.9 L 141.8 85.6 Q 141.2 85.3 141.5 84.1 Q 142.2 83.7 141.8 82.1 L 141.5 81.9 L 141.5 79.9 Q 142.1 79.6 141.8 78.4 L 142.4 77.8 L 143.1 77.5 Z M 143 78 L 142 78 L 142 79 L 142 95 L 142 95 L 145 95 L 145 95 Q 146 95 146 96 L 149 96 L 152 94 L 154 92 L 154 89 L 154 89 Q 154 86 153 85 L 150 83 L 148 83 L 146 84 L 145 83 L 145 82 L 145 81 Q 145 80 145 80 L 145 79 Q 145 78 143 78 Z " /><path fill="rgb(240,243,240)" d="M 190.6 77.5 Q 192.3 77.3 193 78.1 L 192.8 80.9 L 193 82.1 L 192.8 82.4 L 192.8 93.9 L 193 95.1 Q 192.4 96.1 190.4 95.8 L 189.3 94.9 L 189.5 91.6 L 189.3 91.4 L 189.3 88.4 L 189.5 88.1 L 189.5 84.9 Q 188.9 84.6 189.3 83.4 L 189.5 82.1 L 189.3 81.4 L 189.5 81.1 L 189.5 78.6 L 190.1 77.8 L 190.6 77.5 Z M 191 78 L 190 79 L 190 95 L 191 96 Q 192 96 192 95 L 193 95 L 193 78 Q 192 78 191 78 Z " /><path fill="rgb(240,243,240)" d="M 185.4 78.3 Q 186.8 78.4 187.5 79.4 L 187.5 80.9 L 186.5 81.9 L 186.5 82.6 L 187.3 83.4 L 187.3 95.1 L 186.4 95.8 L 184.4 96 Q 183.2 95.3 183.4 93.3 L 182.4 94.5 L 181.5 94.9 L 181.1 95.5 L 180.4 95.8 L 175.6 95.8 L 174.8 95.1 L 173.8 93.4 L 175.1 92.5 L 177.6 92.3 L 178.9 92.5 L 179.3 91.6 L 174.8 88.6 L 174.5 85.6 L 175.9 83.8 L 176.4 83.8 L 178.1 82.5 L 179.9 82.5 Q 180.3 83.1 181.6 82.8 L 182.5 83.6 L 182.8 85.1 L 182.1 86.3 L 180.9 86.5 Q 180.6 85.9 179.4 86.3 L 178.8 86.5 Q 178.4 87.4 179.1 87.3 Q 181.8 87.8 183 89.9 L 183.4 90.5 L 183.5 86.1 L 183.3 85.4 Q 183.8 85.1 183.5 83.9 L 184.1 82.8 Q 184.8 82.9 184.5 82.3 L 183.8 81.9 L 183.5 79.4 L 185.4 78.3 Z M 185 79 L 184 79 L 184 80 L 184 81 Q 184 82 186 82 Q 187 82 187 80 Q 187 79 185 79 Z M 185 83 L 185 83 L 184 84 L 184 85 L 184 90 L 184 90 L 184 93 L 184 93 L 184 95 L 185 96 L 186 95 L 187 95 L 187 84 L 185 83 Z M 178 83 L 175 85 Q 175 87 175 88 Q 177 90 179 91 Q 180 91 180 92 L 178 93 L 178 93 Q 175 93 175 93 L 175 94 L 176 95 L 177 96 Q 180 96 182 94 L 183 93 L 183 91 L 182 89 L 181 88 L 179 88 Q 178 87 178 86 Q 179 85 182 86 L 182 84 Q 181 83 178 83 Z " /><path fill="rgb(240,243,240)" d="M 166.4 82.5 L 169.4 82.8 L 171.5 84.4 L 172.6 86 Q 173.4 85.8 173 86.9 L 172.5 88.1 L 172.8 89.1 L 172.5 89.4 L 172.5 91.4 L 173 92.9 L 172.8 93.9 Q 173.5 94.2 173.3 95.3 L 170.4 96 Q 169.9 95.3 168.4 95.5 L 168.1 95.8 L 164.6 95.8 L 163.8 95.1 L 163.4 94.5 Q 162.1 94.6 162 93.6 L 162 91.9 Q 162.8 91.1 162.8 89.6 L 164.6 87.8 L 166.4 87 L 168.3 86.9 Q 167.8 85.8 165.9 86.3 Q 165.4 86.9 163.9 86.5 L 162.9 85.3 L 161.9 86.5 Q 160.2 86.3 159.8 87.4 L 159.5 88.6 L 160 89.9 L 159.5 90.4 L 159.5 95.1 L 159.1 95.5 L 156.4 95.8 L 155.8 95.5 L 155.5 94.6 L 155.5 84.1 L 156.1 82.8 Q 158.2 82.4 159.1 83.3 L 159.9 82.8 L 162.6 82.8 L 163.3 83 L 163.6 83.8 L 166.4 82.5 Z M 157 83 L 156 83 L 156 84 L 156 95 L 157 96 L 159 95 L 159 95 L 159 88 L 160 87 L 160 86 L 162 86 Q 163 85 163 84 L 162 83 Q 160 83 159 84 L 157 83 Z M 166 83 L 164 84 Q 163 86 164 86 Q 165 86 166 86 Q 167 85 168 86 Q 169 86 169 88 L 166 88 L 164 89 L 163 90 L 163 92 L 163 94 L 165 96 Q 167 96 169 95 Q 170 95 170 96 Q 172 96 173 95 L 172 94 L 172 87 L 172 85 Q 170 83 166 83 Z " /><path fill="rgb(240,243,240)" d="M 147.4 85.8 Q 149.8 85.7 150.5 87.4 L 150.8 87.9 L 150.8 91.1 L 149.1 92.8 L 147.6 93 L 146.6 92.8 L 145.8 91.9 L 145.3 90.9 L 145.3 87.6 L 147.4 85.8 Z M 148 86 L 146 88 L 146 89 Q 146 90 146 90 L 146 91 L 147 93 Q 150 93 151 91 L 150 88 Q 150 86 148 86 Z " /><path fill="rgb(240,243,240)" d="M 147 87.3 Q 148.5 86.8 149 87.6 L 149 88.3 L 147.4 88.3 L 147 87.3 Z " /><path fill="rgb(240,243,240)" d="M 149.4 88.3 Q 149.9 88.7 149.8 89.9 L 148.9 91 L 147.4 91.3 L 146.5 90.6 Q 146 89 147.4 89.5 L 148.6 90 L 149.4 88.3 Z " /><path fill="rgb(240,243,240)" d="M 167.9 89.8 Q 169.3 89.3 168.8 90.9 L 169 91.6 L 168.4 92.5 L 166.4 92.8 Q 165.5 92.5 165.8 91.1 L 167.9 89.8 Z M 168 90 L 166 91 L 167 93 L 168 92 L 169 92 L 169 90 L 168 90 Z " /><path fill="rgb(32,92,139)" d="M 38.9 33.5 L 42.1 33.5 L 44.3 34 L 44.5 34.6 L 44.5 72.1 L 44.3 72.8 L 43.6 73 L 38.4 73 L 37.5 72.4 L 37.5 34.4 L 38.1 33.8 L 38.9 33.5 Z " /><path fill="rgb(32,92,139)" d="M 15.6 45.5 L 20.1 45.5 L 22.4 46 L 25.1 47.3 L 27 48.6 L 28.5 50.6 L 30.3 55.1 L 30.3 56.6 L 30.8 58.4 L 30.8 60.6 L 29.6 61.5 L 12.4 61.5 L 11.8 62.1 L 12 64.4 L 14.4 67.5 L 17.9 68.8 L 21.1 68.8 L 21.4 68.5 L 24.4 68.3 L 26.9 67 L 28.4 66.8 L 28.8 67.1 L 28.8 70.6 L 28.1 71.8 L 24.1 73.3 L 17.6 73.8 L 16.4 73.3 L 13.6 73 L 10.9 71.8 L 9 70.4 Q 9.2 69.8 8.6 70 L 7.1 68 Q 6.6 68.2 6.8 67.6 L 5.3 64.4 L 4.8 58.4 L 5 58.1 L 5.3 54.9 L 6 52.9 Q 7.3 49.7 9.9 47.8 Q 12.2 46.1 15.6 45.5 Z M 17 50 L 14 52 Q 12 53 12 55 L 12 57 L 12 57 L 24 57 L 24 56 L 24 55 L 23 53 L 21 51 Q 19 50 17 50 Z " /><path fill="rgb(32,92,139)" d="M 61.9 45.5 Q 69.4 45 73 48.4 L 74.8 50.4 L 76 53.1 L 76.8 55.6 L 77 60.9 L 76.4 61.5 L 58.9 61.5 L 58.3 62.1 L 58 63.4 Q 58.8 66.1 60.9 67.5 L 64.4 68.8 L 68.1 68.8 L 70.6 68.3 L 74.1 66.8 L 75 67.4 L 75 70.9 L 74.1 72 L 69.1 73.5 L 64.4 73.8 L 64.1 73.5 L 60.9 73.3 L 57.6 72 L 54 68.9 L 52 65.4 L 51.3 62.4 L 51.3 57.4 L 52.3 53.1 L 54.5 49.3 L 57.4 47 L 61.9 45.5 Z M 63 50 L 61 51 Q 58 53 58 56 L 59 57 L 70 57 L 71 56 Q 70 54 69 53 L 67 51 L 63 50 Z " /><path fill="rgb(32,92,139)" d="M 93.4 45.5 L 98.6 45.5 L 100.9 46 L 101.8 46.6 L 102 47.9 L 101.8 48.1 L 101.8 50.4 L 101.1 51 L 99.9 51 L 98.4 50.5 L 95.9 50.5 Q 92.1 51.1 90.5 53.9 L 89.3 57.4 L 89.3 61.4 L 90.3 64.9 L 92.1 67 L 94.6 68.3 L 98.1 68.5 L 101.6 67.8 L 102.3 68 Q 102.8 69.5 102.5 72.4 L 101.1 73.3 L 95.1 73.8 L 94.9 73.5 L 91.4 73.3 L 88.9 72.3 Q 86 70.9 84.3 68.4 L 82.5 64.4 L 82 61.9 L 82 57.4 L 83.3 52.6 L 85.9 49 L 89.1 46.8 L 93.4 45.5 Z " /><path fill="rgb(32,92,139)" d="M 122.4 45.5 L 126.1 45.5 L 127.4 45.8 L 131 47.6 L 133 50.9 L 133.5 53.4 L 133.5 55.1 L 133.8 55.4 L 133.8 72.1 L 133.5 72.8 L 132.9 73 L 127.6 73 Q 126.4 72.5 126.8 70.4 Q 127.4 69.9 127 68.4 L 126.8 68.1 L 126.8 55.6 L 126.3 53.4 L 124.6 51.3 Q 123.5 50.1 120.9 50.5 Q 118.5 51.1 117.3 52.9 L 116.3 54.4 L 115.3 57.6 L 115.3 72.4 L 114.6 73 L 109.4 73 L 108.5 72.4 L 108.5 52.1 L 108.3 51.6 L 108.5 51.4 L 108.5 46.9 L 109.1 46.3 L 113.9 46 L 114.8 46.6 L 115.3 48.8 L 116.6 48.5 Q 117.7 46.9 119.6 46.3 L 122.4 45.5 Z " /><path fill="rgb(32,92,139)" d="M 152.4 45.5 L 156.9 45.5 L 161.6 46.8 L 164.4 48.5 L 166.8 50.9 L 168 53.1 L 169 56.4 L 169.3 61.6 L 168.3 65.4 L 167 67.9 L 164.6 70.5 L 161.9 72.3 L 158.9 73.3 L 157.6 73.5 L 152.9 73.5 L 152.6 73.3 L 149.9 73 L 147.4 72 Q 144.9 70.7 143.3 68.6 L 141 64.4 L 140.5 62.4 L 140.3 58.4 L 140.8 55.9 L 142.3 52.1 L 145.6 48.3 Q 148.3 46.2 152.4 45.5 Z M 154 51 L 151 52 Q 149 53 148 56 L 148 59 L 148 59 L 148 64 L 150 66 Q 151 68 153 69 Q 157 69 159 68 L 161 65 L 162 61 L 162 57 L 161 54 Q 159 52 157 51 L 154 51 Z " /><path fill="rgb(32,92,139)" d="M 189.4 45.5 Q 191.5 45 192 46.1 L 192.3 46.6 L 192.3 51.1 L 191.6 52 L 188.9 51.8 Q 188.5 52.4 187.1 52 L 185 53.6 L 184 55.4 L 183 59.4 L 183 72.4 L 182.4 73 L 176.9 73 L 176.3 72.8 L 176 72.1 L 176 67.6 L 176.3 67.4 L 176.3 62.1 L 176 61.9 L 176 56.4 L 176.3 56.1 L 176.3 52.4 L 176 52.1 L 176 50.1 L 176.3 49.6 L 176 49.4 L 176 47.1 L 176.9 46 L 178.9 46.3 L 179.1 46 L 181.4 46 L 182 46.3 Q 181.6 48.9 182.6 50.3 L 184.3 48.9 L 185.9 47 L 187.6 45.8 Q 189 46.1 189.4 45.5 Z " /><path fill="rgb(32,92,139)" d="M 191.1 78.5 L 192 78.8 L 192 94.9 Q 192 95.1 190.9 95 L 190.3 94.4 L 190.3 81.4 L 190.5 80.4 L 190.3 79.6 L 191.1 78.5 Z " /><path fill="rgb(32,92,139)" d="M 143.4 78.8 L 144.3 79.1 L 144.5 81.9 L 144.3 83.1 Q 144.8 83.4 144.5 84.6 L 144.9 85 Q 146.5 83.6 149.6 83.8 Q 151.1 84.1 151.8 85.1 L 153.3 87.9 L 153.3 89.9 L 152.8 91.9 L 151.1 94 L 149.4 95 L 146.9 95 L 144.6 93.8 L 143.9 94.8 Q 142.9 94.9 142.8 94.4 L 142.8 79.6 L 143.4 78.8 Z M 147 85 L 146 86 L 144 88 L 144 90 L 145 92 L 147 94 Q 149 94 150 93 Q 151 92 152 90 L 151 87 L 149 85 L 147 85 Z " /><path fill="rgb(32,92,139)" d="M 184.9 79.5 Q 186 79.3 186.3 79.9 Q 186.5 81 185.9 81.3 L 185.4 81.5 L 184.5 80.9 Q 184.3 79.8 184.9 79.5 Z " /><path fill="rgb(32,92,139)" d="M 178.6 83.5 L 181.1 84 L 181.5 84.4 L 181.4 85 L 178.9 85 L 177.5 85.6 L 177.3 86.6 L 178.4 88.3 Q 180.9 88.6 182 90.4 L 182.3 92.4 L 180.6 94.5 Q 179.3 95.4 176.6 95 L 175.5 94.1 L 175.9 93.5 L 178.1 93.8 Q 179.8 93.5 180.5 92.4 Q 180.7 90.4 179.4 90 Q 177.1 89.7 176 88.1 Q 175.3 87.5 175.5 85.9 L 176 85 L 178.6 83.5 Z " /><path fill="rgb(32,92,139)" d="M 160.9 83.8 Q 161.9 83.6 162 84.4 L 161.8 85.3 L 160.1 85.5 L 159.3 86.1 L 158.3 88.1 L 158.3 94.8 L 157.1 95 Q 156.4 94.9 156.5 93.9 Q 157.1 93.6 156.8 92.4 L 156.5 91.1 L 156.8 90.9 L 156.8 84.6 L 157.1 84.3 L 158.9 85 L 160.9 83.8 Z " /><path fill="rgb(32,92,139)" d="M 166.1 83.8 L 169.4 84 L 170.5 84.9 Q 172.1 87.7 171.5 92.6 L 171.3 93.4 L 171.8 94.8 L 170.6 95 L 169.6 94 L 168.9 94 Q 168 95.4 165.4 95 L 163.5 93.4 L 163.3 91.6 Q 163.5 90 164.6 89.3 L 166.6 88.3 Q 168.4 88.4 169.3 88 L 169.8 86.6 L 168.1 85 L 165.4 85 L 164.9 85 Q 164.2 85.2 164.5 84.5 L 166.1 83.8 Z M 168 89 L 166 90 L 165 91 Q 165 93 166 93 L 166 94 L 169 93 Q 170 93 170 90 L 168 89 Z " /><path fill="rgb(32,92,139)" d="M 184.8 83.8 Q 185.7 83.5 186 84.1 L 186.3 84.6 L 186.3 92.9 L 186 93.9 L 186.3 94.6 Q 186 95.3 184.9 95 L 184.3 93.4 L 184.5 93.1 L 184.5 90.1 L 184.3 89.6 L 184.5 89.4 L 184.5 87.4 L 184.3 86.4 L 184.8 83.8 Z " /></svg>